<svg width="380" height="56" viewBox="0 0 380 56" fill="none" xmlns="http://www.w3.org/2000/svg">
<rect width="380" height="56" rx="5" fill="#283544"/>
<path d="M146.375 28C146.375 34.279 141.285 39.375 135 39.375C128.715 39.375 123.625 34.279 123.625 28C123.625 21.7153 128.715 16.625 135 16.625C141.285 16.625 146.375 21.7153 146.375 28Z" fill="#283544"/>
<path d="M141.562 24.4574C141.486 24.502 139.667 25.4425 139.667 27.5279C139.753 29.9061 141.962 30.7401 142 30.7401C141.962 30.7847 141.666 31.8763 140.791 33.0205C140.096 34.0062 139.324 35 138.153 35C137.038 35 136.638 34.3431 135.353 34.3431C133.972 34.3431 133.581 35 132.524 35C131.353 35 130.524 33.953 129.791 32.9766C128.839 31.6986 128.03 29.6931 128.001 27.7675C127.982 26.7471 128.192 25.744 128.725 24.8921C129.477 23.7026 130.82 22.8952 132.286 22.8686C133.41 22.8333 134.41 23.5875 135.096 23.5875C135.753 23.5875 136.981 22.8686 138.371 22.8686C138.971 22.8692 140.571 23.0376 141.562 24.4574ZM135.001 22.6649C134.801 21.733 135.353 20.8012 135.867 20.2068C136.524 19.4879 137.562 19 138.457 19C138.514 19.9318 138.152 20.8458 137.505 21.5114C136.924 22.2302 135.924 22.7714 135.001 22.6649Z" fill="white"/>
<path d="M164.281 21.5098C166.355 21.4922 167.709 23.6367 167.709 27.0469C167.709 30.457 166.355 32.6191 164.281 32.6016C162.225 32.6191 160.889 30.457 160.889 27.0469C160.889 23.6367 162.225 21.4922 164.281 21.5098ZM164.281 23.0742C163.139 23.0742 162.436 24.5332 162.436 27.0469C162.436 29.5605 163.139 31.0195 164.281 31.0195C165.441 31.0195 166.162 29.5605 166.162 27.0469C166.162 24.5332 165.441 23.0742 164.281 23.0742ZM174.266 20.2441V35.9941H172.666V27.7852H170.715V35.2207H169.133V20.543H170.715V26.4141H172.666V20.2441H174.266ZM189.277 20.7188V21.9844H186.992V24.709H189.207V25.9922H177.658V24.709H179.891V21.9844H177.588V20.7188H189.277ZM190.631 27.1523V28.4707H176.27V27.1523H190.631ZM188.82 29.7012V33.3047H179.645V34.5703H189.26V35.8359H178.01V32.127H187.168V30.9492H177.992V29.7012H188.82ZM181.543 24.709H185.322V21.9844H181.543V24.709ZM206.24 32.707V34.1133H191.826V32.707H198.172V29.9473H193.584V24.9375H202.83V22.7227H193.549V21.3516H204.482V26.2734H195.236V28.5762H204.852V29.9473H199.824V32.707H206.24ZM226.191 32.707V34.1133H211.777V32.707H218.123V29.9473H213.535V24.9375H222.781V22.7227H213.5V21.3516H224.434V26.2734H215.188V28.5762H224.803V29.9473H219.775V32.707H226.191ZM239.814 21.8438V23.5312C239.814 25.5703 239.814 27.7852 239.234 31.1426L237.529 30.9844C238.162 27.8379 238.162 25.5176 238.162 23.5312V23.2148H228.881V21.8438H239.814ZM241.695 32.373V33.7617H227.334V32.373H241.695ZM255.951 20.2617V31.7051H254.281V20.2617H255.951ZM256.426 34.3066V35.6602H245.65V30.5449H247.338V34.3066H256.426ZM247.408 21.3164C249.781 21.3164 251.592 22.9336 251.592 25.2188C251.592 27.5391 249.781 29.1387 247.408 29.1387C245.035 29.1387 243.207 27.5391 243.207 25.2188C243.207 22.9336 245.035 21.3164 247.408 21.3164ZM247.408 22.7754C245.932 22.7754 244.842 23.7773 244.842 25.2188C244.842 26.6953 245.932 27.6797 247.408 27.6797C248.85 27.6797 249.957 26.6953 249.957 25.2188C249.957 23.7773 248.85 22.7754 247.408 22.7754Z" fill="white"/>
</svg>
