<svg width="380" height="56" viewBox="0 0 380 56" fill="none" xmlns="http://www.w3.org/2000/svg">
<rect x="0.5" y="0.5" width="379" height="55" rx="4.5" fill="white"/>
<rect x="0.5" y="0.5" width="379" height="55" rx="4.5" stroke="#F2F2F2"/>
<path d="M146.375 28.2513C146.375 27.316 146.298 26.6335 146.13 25.9258H135.232V30.1471H141.629C141.5 31.1962 140.804 32.776 139.256 33.8377L139.235 33.979L142.68 36.5949L142.919 36.6183C145.111 34.6339 146.375 31.7144 146.375 28.2513Z" fill="#4285F4"/>
<path d="M135.232 39.3754C138.366 39.3754 140.997 38.3642 142.919 36.6201L139.256 33.8394C138.276 34.5093 136.96 34.9769 135.232 34.9769C132.163 34.9769 129.558 32.9927 128.629 30.25L128.493 30.2613L124.91 32.9787L124.863 33.1064C126.772 36.8222 130.693 39.3754 135.232 39.3754Z" fill="#34A853"/>
<path d="M128.631 30.2511C128.386 29.5433 128.244 28.7849 128.244 28.0013C128.244 27.2177 128.386 26.4594 128.618 25.7516L128.611 25.6009L124.984 22.8398L124.865 22.8952C124.078 24.4371 123.627 26.1687 123.627 28.0013C123.627 29.834 124.078 31.5654 124.865 33.1074L128.631 30.2511Z" fill="#FBBC05"/>
<path d="M135.232 21.0233C137.412 21.0233 138.882 21.9459 139.72 22.717L142.996 19.5825C140.984 17.7499 138.366 16.625 135.232 16.625C130.693 16.625 126.772 19.178 124.863 22.8938L128.616 25.7503C129.558 23.0076 132.163 21.0233 135.232 21.0233Z" fill="#EB4335"/>
<path d="M173.246 21.2285V22.6172C173.246 24.1113 173.246 25.7285 172.807 27.9785H175.074V29.3496H168.693V36.0117H167.006V29.3496H160.713V27.9785H171.119C171.594 25.7373 171.594 24.085 171.594 22.6172V22.5996H162.471V21.2285H173.246ZM188.855 20.9121V21.9492C188.855 22.9951 188.855 24.3135 188.521 26.0273H190.684V27.3633H176.27V26.0273H186.852C187.168 24.4277 187.203 23.2236 187.203 22.248H178.08V20.9121H188.855ZM188.873 28.7695V32.9004H179.645V34.5H189.277V35.8359H177.975V31.6172H187.221V30.1055H177.957V28.7695H188.873ZM206.24 32.707V34.1133H191.826V32.707H198.172V29.9473H193.584V24.9375H202.83V22.7227H193.549V21.3516H204.482V26.2734H195.236V28.5762H204.852V29.9473H199.824V32.707H206.24ZM226.191 32.707V34.1133H211.777V32.707H218.123V29.9473H213.535V24.9375H222.781V22.7227H213.5V21.3516H224.434V26.2734H215.188V28.5762H224.803V29.9473H219.775V32.707H226.191ZM239.814 21.8438V23.5312C239.814 25.5703 239.814 27.7852 239.234 31.1426L237.529 30.9844C238.162 27.8379 238.162 25.5176 238.162 23.5312V23.2148H228.881V21.8438H239.814ZM241.695 32.373V33.7617H227.334V32.373H241.695ZM255.951 20.2617V31.7051H254.281V20.2617H255.951ZM256.426 34.3066V35.6602H245.65V30.5449H247.338V34.3066H256.426ZM247.408 21.3164C249.781 21.3164 251.592 22.9336 251.592 25.2188C251.592 27.5391 249.781 29.1387 247.408 29.1387C245.035 29.1387 243.207 27.5391 243.207 25.2188C243.207 22.9336 245.035 21.3164 247.408 21.3164ZM247.408 22.7754C245.932 22.7754 244.842 23.7773 244.842 25.2188C244.842 26.6953 245.932 27.6797 247.408 27.6797C248.85 27.6797 249.957 26.6953 249.957 25.2188C249.957 23.7773 248.85 22.7754 247.408 22.7754Z" fill="#282828"/>
</svg>
