<svg width="380" height="54" viewBox="0 0 380 54" fill="none" xmlns="http://www.w3.org/2000/svg">
<rect width="380" height="54" rx="5" fill="#FEE500"/>
<g clip-path="url(#clip0_1140_15538)">
<path fill-rule="evenodd" clip-rule="evenodd" d="M127 18.6016C122.029 18.6016 118 21.7145 118 25.5538C118 27.9416 119.558 30.0465 121.932 31.2985L120.933 34.9461C120.845 35.2684 121.213 35.5252 121.496 35.3385L125.873 32.4498C126.243 32.4854 126.618 32.5062 127 32.5062C131.97 32.5062 136 29.3934 136 25.5538C136 21.7145 131.97 18.6016 127 18.6016Z" fill="black"/>
</g>
<path d="M160.126 20.8438C160.108 25.4844 158.685 29.6152 152.937 32.4453L152.022 31.1973C154.87 29.7998 156.566 28.1035 157.507 26.0996L152.356 26.5918L152.11 25.1504L158.017 24.7461C158.254 23.9463 158.395 23.0938 158.456 22.1973H152.937V20.8438H160.126ZM164.204 19.2441V25.5371H166.647V26.9082H164.204V34.9766H162.534V19.2441H164.204ZM175.683 20.8438C175.665 25.4844 174.241 29.6152 168.493 32.4453L167.579 31.1973C170.427 29.7998 172.123 28.1035 173.063 26.0996L167.913 26.5918L167.667 25.1504L173.573 24.7461C173.811 23.9463 173.951 23.0938 174.013 22.1973H168.493V20.8438H175.683ZM179.761 19.2441V25.5371H182.204V26.9082H179.761V34.9766H178.091V19.2441H179.761ZM190.22 20.1934C193.595 20.2109 196.038 21.8633 196.038 24.377C196.038 26.7412 193.99 28.2969 191.046 28.543V31.6367H197.462V33.0254H183.048V31.6367H189.394V28.543C186.467 28.2969 184.419 26.7412 184.419 24.377C184.419 21.8633 186.862 20.2109 190.22 20.1934ZM190.22 21.5645C187.794 21.5469 186.036 22.6719 186.036 24.377C186.036 26.1523 187.794 27.2422 190.22 27.2598C192.663 27.2422 194.421 26.1523 194.421 24.377C194.421 22.6719 192.663 21.5469 190.22 21.5645ZM213.019 31.707V33.1133H198.604V31.707H204.95V28.9473H200.362V23.9375H209.608V21.7227H200.327V20.3516H211.261V25.2734H202.015V27.5762H211.63V28.9473H206.603V31.707H213.019ZM232.97 31.707V33.1133H218.556V31.707H224.901V28.9473H220.313V23.9375H229.56V21.7227H220.278V20.3516H231.212V25.2734H221.966V27.5762H231.581V28.9473H226.554V31.707H232.97ZM246.593 20.8438V22.5312C246.593 24.5703 246.593 26.7852 246.013 30.1426L244.308 29.9844C244.94 26.8379 244.94 24.5176 244.94 22.5312V22.2148H235.659V20.8438H246.593ZM248.474 31.373V32.7617H234.112V31.373H248.474ZM262.729 19.2617V30.7051H261.06V19.2617H262.729ZM263.204 33.3066V34.6602H252.429V29.5449H254.116V33.3066H263.204ZM254.187 20.3164C256.56 20.3164 258.37 21.9336 258.37 24.2188C258.37 26.5391 256.56 28.1387 254.187 28.1387C251.813 28.1387 249.985 26.5391 249.985 24.2188C249.985 21.9336 251.813 20.3164 254.187 20.3164ZM254.187 21.7754C252.71 21.7754 251.62 22.7773 251.62 24.2188C251.62 25.6953 252.71 26.6797 254.187 26.6797C255.628 26.6797 256.735 25.6953 256.735 24.2188C256.735 22.7773 255.628 21.7754 254.187 21.7754Z" fill="#282828"/>
<defs>
<clipPath id="clip0_1140_15538">
<rect width="18" height="18" fill="white" transform="translate(118 18)"/>
</clipPath>
</defs>
</svg>
