<svg width="12" height="10" viewBox="0 0 12 10" fill="none" xmlns="http://www.w3.org/2000/svg">
<path fill-rule="evenodd" clip-rule="evenodd" d="M2.5 0.5C1.39543 0.5 0.5 1.39543 0.5 2.5V7.5C0.5 8.60457 1.39543 9.5 2.5 9.5H9.5C10.6046 9.5 11.5 8.60457 11.5 7.5V2.5C11.5 1.39543 10.6046 0.5 9.5 0.5H2.5ZM1.58738 3.1088C1.7118 2.86228 2.01252 2.7633 2.25904 2.88772L6.28934 4.92191L10.3196 2.88772C10.5662 2.7633 10.8669 2.86228 10.9913 3.1088C11.1157 3.35532 11.0168 3.65603 10.7702 3.78046L6.51495 5.92819C6.44248 5.96477 6.36533 5.98204 6.28934 5.98194C6.21336 5.98204 6.13621 5.96477 6.06373 5.92819L1.80845 3.78046C1.56193 3.65603 1.46295 3.35532 1.58738 3.1088Z" fill="#D9D9D9"/>
</svg>
