<svg width="380" height="54" viewBox="0 0 380 54" fill="none" xmlns="http://www.w3.org/2000/svg">
<rect width="380" height="54" rx="5" fill="#03C75A"/>
<g clip-path="url(#clip0_1140_15537)">
<path d="M129.849 27.5627L123.917 19H119V35H124.151V26.436L130.083 35H135V19H129.849V27.5627Z" fill="white"/>
</g>
<path d="M154.325 20.8789V29.6328C155.942 29.6064 157.472 29.501 159.212 29.1406L159.44 30.5645C157.384 30.9863 155.644 31.0742 153.692 31.0742H152.655V20.8789H154.325ZM165.47 19.2441V34.9941H163.888V19.2441H165.47ZM162.095 19.5957V34.2207H160.513V25.8008H157.067V24.4297H160.513V19.5957H162.095ZM180.534 19.2441V35.0293H178.864V19.2441H180.534ZM172.114 20.4219C174.452 20.4219 176.175 22.5664 176.175 25.9414C176.175 29.334 174.452 31.4785 172.114 31.4785C169.741 31.4785 168.036 29.334 168.036 25.9414C168.036 22.5664 169.741 20.4219 172.114 20.4219ZM172.114 21.916C170.655 21.916 169.653 23.4629 169.653 25.9414C169.653 28.4375 170.655 29.9844 172.114 29.9844C173.556 29.9844 174.558 28.4375 174.558 25.9414C174.558 23.4629 173.556 21.916 172.114 21.916ZM196.179 19.2441V35.0293H194.526V26.3633H191.046V31.127H183.663V20.457H185.351V24.4824H189.411V20.457H191.046V24.9922H194.526V19.2441H196.179ZM185.351 29.7559H189.411V25.8008H185.351V29.7559ZM213.019 31.707V33.1133H198.604V31.707H204.95V28.9473H200.362V23.9375H209.608V21.7227H200.327V20.3516H211.261V25.2734H202.015V27.5762H211.63V28.9473H206.603V31.707H213.019ZM232.97 31.707V33.1133H218.556V31.707H224.901V28.9473H220.313V23.9375H229.56V21.7227H220.278V20.3516H231.212V25.2734H221.966V27.5762H231.581V28.9473H226.554V31.707H232.97ZM246.593 20.8438V22.5312C246.593 24.5703 246.593 26.7852 246.013 30.1426L244.308 29.9844C244.94 26.8379 244.94 24.5176 244.94 22.5312V22.2148H235.659V20.8438H246.593ZM248.474 31.373V32.7617H234.112V31.373H248.474ZM262.729 19.2617V30.7051H261.06V19.2617H262.729ZM263.204 33.3066V34.6602H252.429V29.5449H254.116V33.3066H263.204ZM254.187 20.3164C256.56 20.3164 258.37 21.9336 258.37 24.2188C258.37 26.5391 256.56 28.1387 254.187 28.1387C251.813 28.1387 249.985 26.5391 249.985 24.2188C249.985 21.9336 251.813 20.3164 254.187 20.3164ZM254.187 21.7754C252.71 21.7754 251.62 22.7773 251.62 24.2188C251.62 25.6953 252.71 26.6797 254.187 26.6797C255.628 26.6797 256.735 25.6953 256.735 24.2188C256.735 22.7773 255.628 21.7754 254.187 21.7754Z" fill="white"/>
<defs>
<clipPath id="clip0_1140_15537">
<rect width="16" height="16" fill="white" transform="translate(119 19)"/>
</clipPath>
</defs>
</svg>
