<svg width="20" height="20" viewBox="0 0 20 20" fill="none" xmlns="http://www.w3.org/2000/svg">
<path d="M7.50033 18.3307H12.5003C16.667 18.3307 18.3337 16.6641 18.3337 12.4974V7.4974C18.3337 3.33073 16.667 1.66406 12.5003 1.66406H7.50033C3.33366 1.66406 1.66699 3.33073 1.66699 7.4974V12.4974C1.66699 16.6641 3.33366 18.3307 7.50033 18.3307Z" fill="#2E4072"/>
<path d="M10.3086 7.40625H14.6836H10.3086Z" fill="#E4EBFF"/>
<path d="M10.3086 7.40625H14.6836" stroke="#E4EBFF" stroke-linecap="round" stroke-linejoin="round"/>
<path d="M5.31641 7.40625L5.94141 8.03125L7.81641 6.15625" fill="#E4EBFF"/>
<path d="M5.31641 7.40625L5.94141 8.03125L7.81641 6.15625" stroke="#E4EBFF" stroke-linecap="round" stroke-linejoin="round"/>
<path d="M10.3086 13.2344H14.6836H10.3086Z" fill="#E4EBFF"/>
<path d="M10.3086 13.2344H14.6836" stroke="#E4EBFF" stroke-linecap="round" stroke-linejoin="round"/>
<path d="M5.31641 13.2344L5.94141 13.8594L7.81641 11.9844" fill="#E4EBFF"/>
<path d="M5.31641 13.2344L5.94141 13.8594L7.81641 11.9844" stroke="#E4EBFF" stroke-linecap="round" stroke-linejoin="round"/>
</svg>
