<svg width="34" height="34" viewBox="0 0 34 34" fill="none" xmlns="http://www.w3.org/2000/svg">
<path d="M17.0206 7.91016C13.7106 7.91016 11.0206 10.6002 11.0206 13.9102V16.8002C11.0206 17.4102 10.7606 18.3402 10.4506 18.8602L9.30058 20.7702C8.59058 21.9502 9.08058 23.2602 10.3806 23.7002C14.6906 25.1402 19.3406 25.1402 23.6506 23.7002C24.8606 23.3002 25.3906 21.8702 24.7306 20.7702L23.5806 18.8602C23.2806 18.3402 23.0206 17.4102 23.0206 16.8002V13.9102C23.0206 10.6102 20.3206 7.91016 17.0206 7.91016Z" stroke="#C9C9C9" stroke-width="1.5" stroke-miterlimit="10" stroke-linecap="round"/>
<path d="M18.8699 8.20141C18.5599 8.11141 18.2399 8.04141 17.9099 8.00141C16.9499 7.88141 16.0299 7.95141 15.1699 8.20141C15.4599 7.46141 16.1799 6.94141 17.0199 6.94141C17.8599 6.94141 18.5799 7.46141 18.8699 8.20141Z" stroke="#C9C9C9" stroke-width="1.5" stroke-miterlimit="10" stroke-linecap="round" stroke-linejoin="round"/>
<path d="M20.0195 24.0586C20.0195 25.7086 18.6695 27.0586 17.0195 27.0586C16.1995 27.0586 15.4395 26.7186 14.8995 26.1786C14.3595 25.6386 14.0195 24.8786 14.0195 24.0586" stroke="#C9C9C9" stroke-width="1.5" stroke-miterlimit="10"/>
</svg>
