<svg width="17" height="13" viewBox="0 0 17 13" fill="none" xmlns="http://www.w3.org/2000/svg">
<path fill-rule="evenodd" clip-rule="evenodd" d="M7.01679 0C6.15592 0 5.39165 0.55086 5.11942 1.36754L4.92531 1.94986H3.15869C1.50184 1.94986 0.158691 3.293 0.158691 4.94986V9.99942C0.158691 11.6563 1.50184 12.9994 3.15869 12.9994H13.8414C15.4982 12.9994 16.8414 11.6563 16.8414 9.99942V4.94986C16.8414 3.293 15.4982 1.94986 13.8414 1.94986H12.075L11.8809 1.36754C11.6087 0.55086 10.8444 0 9.98352 0H7.01679Z" fill="#AFADAD"/>
<path d="M12.7246 7.47483C12.7246 9.80815 10.833 11.6997 8.49974 11.6997C6.16643 11.6997 4.2749 9.80815 4.2749 7.47483C4.2749 5.14152 6.16643 3.25 8.49974 3.25C10.833 3.25 12.7246 5.14152 12.7246 7.47483ZM5.34672 7.47483C5.34672 9.2162 6.75837 10.6279 8.49974 10.6279C10.2411 10.6279 11.6528 9.2162 11.6528 7.47483C11.6528 5.73347 10.2411 4.32182 8.49974 4.32182C6.75837 4.32182 5.34672 5.73347 5.34672 7.47483Z" fill="white"/>
<circle cx="13.8073" cy="3.4675" r="0.433316" fill="white"/>
</svg>
