<svg width="15" height="15" viewBox="0 0 15 15" fill="none" xmlns="http://www.w3.org/2000/svg">
<path d="M4.77802 14H11.222C12.9191 14 13.5954 12.9015 13.6754 11.5625L13.9951 6.1935C14.0812 4.7895 13.0236 3.6 11.6893 3.6C11.3142 3.6 10.9699 3.3725 10.7977 3.0215L10.355 2.079C10.0722 1.4875 9.33429 1 8.70711 1H7.29904C6.66571 1 5.92785 1.4875 5.645 2.079L5.20229 3.0215C5.03012 3.3725 4.68579 3.6 4.31071 3.6C2.97642 3.6 1.91882 4.7895 2.00491 6.1935L2.32465 11.5625C2.39843 12.9015 3.08095 14 4.77802 14Z" fill="#888888"/>
<path d="M7 5H9H7Z" fill="#888888"/>
<path d="M7 5H9" stroke="white" stroke-width="1.5" stroke-linecap="round" stroke-linejoin="round"/>
<path d="M8 11C9.10154 11 10 10.1015 10 9C10 7.89846 9.10154 7 8 7C6.89846 7 6 7.89846 6 9C6 10.1015 6.89846 11 8 11Z" fill="#888888" stroke="white" stroke-width="1.5" stroke-linecap="round" stroke-linejoin="round"/>
</svg>
