<svg width="20" height="20" viewBox="0 0 20 20" fill="none" xmlns="http://www.w3.org/2000/svg">
<path d="M7.50016 8.33333C8.42064 8.33333 9.16683 7.58714 9.16683 6.66667C9.16683 5.74619 8.42064 5 7.50016 5C6.57969 5 5.8335 5.74619 5.8335 6.66667C5.8335 7.58714 6.57969 8.33333 7.50016 8.33333Z" stroke="#545454" stroke-width="1.5" stroke-linecap="round" stroke-linejoin="round"/>
<path d="M10.8332 1.66699H7.49984C3.33317 1.66699 1.6665 3.33366 1.6665 7.50033V12.5003C1.6665 16.667 3.33317 18.3337 7.49984 18.3337H12.4998C16.6665 18.3337 18.3332 16.667 18.3332 12.5003V8.33366" stroke="#545454" stroke-width="1.5" stroke-linecap="round" stroke-linejoin="round"/>
<path d="M15 6.66699V1.66699L16.6667 3.33366" stroke="#545454" stroke-width="1.5" stroke-linecap="round" stroke-linejoin="round"/>
<path d="M15.0002 1.66699L13.3335 3.33366" stroke="#545454" stroke-width="1.5" stroke-linecap="round" stroke-linejoin="round"/>
<path d="M2.2251 15.7918L6.33343 13.0335C6.99176 12.5918 7.94176 12.6418 8.53343 13.1501L8.80843 13.3918C9.45843 13.9501 10.5084 13.9501 11.1584 13.3918L14.6251 10.4168C15.2751 9.85846 16.3251 9.85846 16.9751 10.4168L18.3334 11.5835" stroke="#545454" stroke-width="1.5" stroke-linecap="round" stroke-linejoin="round"/>
</svg>
