<svg width="13" height="14" viewBox="0 0 13 14" fill="none" xmlns="http://www.w3.org/2000/svg">
<path d="M4.60384 10.7943H4.33301C2.16634 10.7943 1.08301 10.2526 1.08301 7.54427V4.83594C1.08301 2.66927 2.16634 1.58594 4.33301 1.58594H8.66634C10.833 1.58594 11.9163 2.66927 11.9163 4.83594V7.54427C11.9163 9.71094 10.833 10.7943 8.66634 10.7943H8.39551C8.22759 10.7943 8.06509 10.8755 7.96217 11.0109L7.14967 12.0943C6.79217 12.5709 6.20717 12.5709 5.84967 12.0943L5.03717 11.0109C4.95051 10.8918 4.75009 10.7943 4.60384 10.7943Z" stroke="#888888" stroke-miterlimit="10" stroke-linecap="round" stroke-linejoin="round"/>
<path d="M8.66434 6.45833H8.66921" stroke="#888888" stroke-linecap="round" stroke-linejoin="round"/>
<path d="M6.49735 6.45833H6.50222" stroke="#888888" stroke-linecap="round" stroke-linejoin="round"/>
<path d="M4.33036 6.45833H4.33522" stroke="#888888" stroke-linecap="round" stroke-linejoin="round"/>
</svg>
