<svg width="13" height="14" viewBox="0 0 13 14" fill="none" xmlns="http://www.w3.org/2000/svg">
<path d="M8.94762 3.5625L7.26845 2.2625C7.05179 2.04583 6.56429 1.9375 6.23929 1.9375H4.18095C3.53095 1.9375 2.82679 2.425 2.66429 3.075L1.36429 7.02917C1.09345 7.7875 1.58095 8.4375 2.39345 8.4375H4.56012C4.88512 8.4375 5.15595 8.70833 5.10179 9.0875L4.83095 10.8208C4.72262 11.3083 5.04762 11.85 5.53512 12.0125C5.96845 12.175 6.51012 11.9583 6.72679 11.6333L8.94762 8.32917" stroke="#888888" stroke-miterlimit="10"/>
<path d="M11.7103 3.56042V8.86875C11.7103 9.62708 11.3853 9.89792 10.627 9.89792H10.0853C9.32695 9.89792 9.00195 9.62708 9.00195 8.86875V3.56042C9.00195 2.80208 9.32695 2.53125 10.0853 2.53125H10.627C11.3853 2.53125 11.7103 2.80208 11.7103 3.56042Z" stroke="#888888" stroke-linecap="round" stroke-linejoin="round"/>
</svg>
