<svg width="20" height="20" viewBox="0 0 20 20" fill="none" xmlns="http://www.w3.org/2000/svg">
<path d="M6.23389 15.292L8.81722 17.292C9.15055 17.6254 9.90055 17.792 10.4006 17.792H13.5672C14.5672 17.792 15.6506 17.042 15.9006 16.042L17.9006 9.95871C18.3172 8.79205 17.5672 7.79205 16.3172 7.79205H12.9839C12.4839 7.79205 12.0672 7.37538 12.1506 6.79205L12.5672 4.12538C12.7339 3.37538 12.2339 2.54205 11.4839 2.29205C10.8172 2.04205 9.98389 2.37538 9.65055 2.87538L6.23389 7.95871" stroke="#888888" stroke-miterlimit="10"/>
<path d="M1.9834 15.2904V7.12374C1.9834 5.95707 2.4834 5.54041 3.65007 5.54041H4.4834C5.65006 5.54041 6.15007 5.95707 6.15007 7.12374V15.2904C6.15007 16.4571 5.65006 16.8737 4.4834 16.8737H3.65007C2.4834 16.8737 1.9834 16.4571 1.9834 15.2904Z" stroke="#888888" stroke-linecap="round" stroke-linejoin="round"/>
</svg>
