<svg width="15" height="16" viewBox="0 0 15 16" fill="none" xmlns="http://www.w3.org/2000/svg">
<rect width="15" height="16" fill="#F5F5F5"/>
<g id="&#236;&#138;&#181;&#236;&#158;&#145; &#236;&#152;&#136;&#236;&#149;&#189; &#237;&#148;&#132;&#235;&#161;&#156;&#237;&#134;&#160;&#237;&#131;&#128;&#236;&#158;&#133;">
<path d="M-11179 -2317.86H1888V-2347.86H-11179V-2317.86ZM1875 -2330.86V1729.14H1905V-2330.86H1875ZM1888 1716.14H-11179V1746.14H1888V1716.14ZM-11166 1729.14V-2330.86H-11196V1729.14H-11166ZM-11179 1716.14C-11171.8 1716.14 -11166 1721.96 -11166 1729.14H-11196C-11196 1738.53 -11188.4 1746.14 -11179 1746.14V1716.14ZM1875 1729.14C1875 1721.96 1880.82 1716.14 1888 1716.14V1746.14C1897.39 1746.14 1905 1738.53 1905 1729.14H1875ZM1888 -2317.86C1880.82 -2317.86 1875 -2323.68 1875 -2330.86H1905C1905 -2340.25 1897.39 -2347.86 1888 -2347.86V-2317.86ZM-11179 -2347.86C-11188.4 -2347.86 -11196 -2340.25 -11196 -2330.86H-11166C-11166 -2323.68 -11171.8 -2317.86 -11179 -2317.86V-2347.86Z" fill="black"/>
<g id="&#236;&#158;&#145;&#237;&#146;&#136; &#236;&#160;&#149;&#235;&#179;&#180; &#236;&#136;&#152;&#236;&#160;&#149; &#237;&#142;&#152;&#236;&#157;&#180;&#236;&#167;&#128;" clip-path="url(#clip0_7_11200)">
<rect width="1920" height="2013" transform="translate(-723 -1597.86)" fill="white"/>
<g id="Frame 633446">
<rect x="-13.5" y="-177.359" width="406" height="206" rx="4.5" fill="white"/>
<rect x="-13.5" y="-177.359" width="406" height="206" rx="4.5" stroke="#F2F2F2"/>
<g id="Frame 633303">
<g id="vuesax/linear/info-circle">
<g id="info-circle">
<path id="Vector" d="M7.5 13.8906C10.9375 13.8906 13.75 11.0781 13.75 7.64062C13.75 4.20312 10.9375 1.39062 7.5 1.39062C4.0625 1.39062 1.25 4.20312 1.25 7.64062C1.25 11.0781 4.0625 13.8906 7.5 13.8906Z" fill="#888888"/>
<path id="Vector_2" d="M7.5 5.14062V8.26562" stroke="white" stroke-linecap="round" stroke-linejoin="round"/>
<path id="Vector_3" d="M7.49609 10.1406H7.50171" stroke="white" stroke-linecap="round" stroke-linejoin="round"/>
</g>
</g>
</g>
</g>
</g>
</g>
<defs>
<clipPath id="clip0_7_11200">
<rect width="1920" height="2013" fill="white" transform="translate(-723 -1597.86)"/>
</clipPath>
</defs>
</svg>
