<svg width="13" height="14" viewBox="0 0 13 14" fill="none" xmlns="http://www.w3.org/2000/svg">
<path d="M4.05273 10.4428L5.7319 11.7428C5.94857 11.9594 6.43607 12.0678 6.76107 12.0678H8.8194C9.4694 12.0678 10.1736 11.5803 10.3361 10.9303L11.6361 6.97609C11.9069 6.21776 11.4194 5.56776 10.6069 5.56776H8.44023C8.11523 5.56776 7.8444 5.29693 7.89857 4.91776L8.1694 3.18443C8.27773 2.69693 7.95273 2.15526 7.46523 1.99276C7.0319 1.83026 6.49023 2.04693 6.27357 2.37193L4.05273 5.67609" stroke="#FBA250" stroke-miterlimit="10"/>
<path d="M1.28906 10.4391V5.13073C1.28906 4.3724 1.61406 4.10156 2.3724 4.10156H2.91406C3.6724 4.10156 3.9974 4.3724 3.9974 5.13073V10.4391C3.9974 11.1974 3.6724 11.4682 2.91406 11.4682H2.3724C1.61406 11.4682 1.28906 11.1974 1.28906 10.4391Z" stroke="#FBA250" stroke-linecap="round" stroke-linejoin="round"/>
</svg>
