<svg width="14" height="14" viewBox="0 0 14 14" fill="none" xmlns="http://www.w3.org/2000/svg">
<path d="M4.36377 10.7044L6.1721 12.1044C6.40544 12.3378 6.93044 12.4544 7.28044 12.4544H9.4971C10.1971 12.4544 10.9554 11.9294 11.1304 11.2294L12.5304 6.9711C12.8221 6.15443 12.2971 5.45443 11.4221 5.45443H9.08877C8.73877 5.45443 8.4471 5.16277 8.50544 4.75443L8.7971 2.88777C8.91377 2.36277 8.56377 1.77943 8.03877 1.60443C7.5721 1.42943 6.98877 1.66277 6.75544 2.01277L4.36377 5.5711" stroke="#C9C9C9" stroke-miterlimit="10"/>
<path d="M1.38818 10.7029V4.98626C1.38818 4.1696 1.73818 3.87793 2.55485 3.87793H3.13818C3.95485 3.87793 4.30485 4.1696 4.30485 4.98626V10.7029C4.30485 11.5196 3.95485 11.8113 3.13818 11.8113H2.55485C1.73818 11.8113 1.38818 11.5196 1.38818 10.7029Z" stroke="#C9C9C9" stroke-linecap="round" stroke-linejoin="round"/>
</svg>
