<svg width="34" height="34" viewBox="0 0 34 34" fill="none" xmlns="http://www.w3.org/2000/svg">
<path d="M13.2334 22.292L15.8167 24.292C16.1501 24.6254 16.9001 24.792 17.4001 24.792H20.5667C21.5667 24.792 22.6501 24.042 22.9001 23.042L24.9001 16.9587C25.3167 15.792 24.5667 14.792 23.3167 14.792H19.9834C19.4834 14.792 19.0667 14.3754 19.1501 13.792L19.5667 11.1254C19.7334 10.3754 19.2334 9.54205 18.4834 9.29205C17.8167 9.04205 16.9834 9.37538 16.6501 9.87538L13.2334 14.9587" stroke="#888888" stroke-miterlimit="10"/>
<path d="M8.9834 22.2891V14.1224C8.9834 12.9557 9.4834 12.5391 10.6501 12.5391H11.4834C12.6501 12.5391 13.1501 12.9557 13.1501 14.1224V22.2891C13.1501 23.4557 12.6501 23.8724 11.4834 23.8724H10.6501C9.4834 23.8724 8.9834 23.4557 8.9834 22.2891Z" stroke="#888888" stroke-linecap="round" stroke-linejoin="round"/>
</svg>
