<svg width="13" height="14" viewBox="0 0 13 14" fill="none" xmlns="http://www.w3.org/2000/svg">
<path d="M4.60433 10.7943H4.3335C2.16683 10.7943 1.0835 10.2526 1.0835 7.54427V4.83594C1.0835 2.66927 2.16683 1.58594 4.3335 1.58594H8.66683C10.8335 1.58594 11.9168 2.66927 11.9168 4.83594V7.54427C11.9168 9.71094 10.8335 10.7943 8.66683 10.7943H8.396C8.22808 10.7943 8.06558 10.8755 7.96266 11.0109L7.15016 12.0943C6.79266 12.5709 6.20766 12.5709 5.85016 12.0943L5.03766 11.0109C4.951 10.8918 4.75058 10.7943 4.60433 10.7943Z" stroke="#888888" stroke-miterlimit="10" stroke-linecap="round" stroke-linejoin="round"/>
<path d="M8.66483 6.45833H8.6697" stroke="#888888" stroke-linecap="round" stroke-linejoin="round"/>
<path d="M6.49759 6.45833H6.50246" stroke="#888888" stroke-linecap="round" stroke-linejoin="round"/>
<path d="M4.33036 6.45833H4.33522" stroke="#888888" stroke-linecap="round" stroke-linejoin="round"/>
</svg>
