<svg width="24" height="24" viewBox="0 0 24 24" fill="none" xmlns="http://www.w3.org/2000/svg">
<path d="M12.0206 2.90625C8.71058 2.90625 6.02058 5.59625 6.02058 8.90625V11.7963C6.02058 12.4062 5.76058 13.3363 5.45058 13.8562L4.30058 15.7663C3.59058 16.9463 4.08058 18.2563 5.38058 18.6963C9.69058 20.1363 14.3406 20.1363 18.6506 18.6963C19.8606 18.2963 20.3906 16.8663 19.7306 15.7663L18.5806 13.8562C18.2806 13.3363 18.0206 12.4062 18.0206 11.7963V8.90625C18.0206 5.60625 15.3206 2.90625 12.0206 2.90625Z" fill="#FBA250"/>
<path d="M13.8699 3.1975C13.5599 3.1075 13.2399 3.0375 12.9099 2.9975C11.9499 2.8775 11.0299 2.9475 10.1699 3.1975C10.4599 2.4575 11.1799 1.9375 12.0199 1.9375C12.8599 1.9375 13.5799 2.4575 13.8699 3.1975Z" stroke="#FBA250" stroke-width="1.5" stroke-miterlimit="10" stroke-linecap="round" stroke-linejoin="round"/>
<path d="M15.0195 19.0625C15.0195 20.7125 13.6695 22.0625 12.0195 22.0625C11.1995 22.0625 10.4395 21.7225 9.89953 21.1825C9.35953 20.6425 9.01953 19.8825 9.01953 19.0625" fill="#FBA250"/>
</svg>
