<svg width="34" height="34" viewBox="0 0 34 34" fill="none" xmlns="http://www.w3.org/2000/svg">
<path d="M17.0207 7.91016C13.7107 7.91016 11.0207 10.6002 11.0207 13.9102V16.8002C11.0207 17.4102 10.7607 18.3402 10.4507 18.8602L9.3007 20.7702C8.5907 21.9502 9.0807 23.2602 10.3807 23.7002C14.6907 25.1402 19.3407 25.1402 23.6507 23.7002C24.8607 23.3002 25.3907 21.8702 24.7307 20.7702L23.5807 18.8602C23.2807 18.3402 23.0207 17.4102 23.0207 16.8002V13.9102C23.0207 10.6102 20.3207 7.91016 17.0207 7.91016Z" fill="#FBA250" stroke="#FA973B" stroke-width="1.5" stroke-miterlimit="10" stroke-linecap="round"/>
<path d="M18.8698 8.20141C18.5598 8.11141 18.2398 8.04141 17.9098 8.00141C16.9498 7.88141 16.0298 7.95141 15.1698 8.20141C15.4598 7.46141 16.1798 6.94141 17.0198 6.94141C17.8598 6.94141 18.5798 7.46141 18.8698 8.20141Z" stroke="#FA973B" stroke-width="1.5" stroke-miterlimit="10" stroke-linecap="round" stroke-linejoin="round"/>
<path d="M20.0197 24.0586C20.0197 25.7086 18.6697 27.0586 17.0197 27.0586C16.1997 27.0586 15.4397 26.7186 14.8997 26.1786C14.3597 25.6386 14.0197 24.8786 14.0197 24.0586" fill="#FBA250"/>
<path d="M20.0197 24.0586C20.0197 25.7086 18.6697 27.0586 17.0197 27.0586C16.1997 27.0586 15.4397 26.7186 14.8997 26.1786C14.3597 25.6386 14.0197 24.8786 14.0197 24.0586" stroke="#FA973B" stroke-width="1.5" stroke-miterlimit="10"/>
</svg>
