<svg width="11" height="11" viewBox="0 0 11 11" fill="none" xmlns="http://www.w3.org/2000/svg">
<path d="M5.02447 0.963526C5.17415 0.502871 5.82585 0.50287 5.97553 0.963525L6.84708 3.6459C6.91402 3.85191 7.106 3.99139 7.32261 3.99139H10.143C10.6274 3.99139 10.8288 4.6112 10.4369 4.8959L8.15516 6.5537C7.97991 6.68102 7.90658 6.9067 7.97352 7.11271L8.84508 9.79508C8.99475 10.2557 8.46751 10.6388 8.07565 10.3541L5.79389 8.69631C5.61865 8.56898 5.38135 8.56898 5.20611 8.69631L2.92435 10.3541C2.53249 10.6388 2.00525 10.2557 2.15492 9.79508L3.02648 7.11271C3.09342 6.9067 3.02009 6.68102 2.84484 6.5537L0.563082 4.8959C0.171226 4.6112 0.372613 3.99139 0.856974 3.99139H3.67739C3.894 3.99139 4.08598 3.85191 4.15292 3.6459L5.02447 0.963526Z" fill="#FBA250"/>
</svg>
