<svg width="16" height="13" viewBox="0 0 16 13" fill="none" xmlns="http://www.w3.org/2000/svg">
<path fill-rule="evenodd" clip-rule="evenodd" d="M10.5674 1.97528L3.8365 9.35468C3.66322 9.54465 3.5282 9.76626 3.43884 10.0074L2.95942 11.3008C2.81091 11.7014 3.20088 12.0917 3.60165 11.9435L4.92103 11.4557C5.22082 11.3448 5.48967 11.1637 5.70506 10.9276L12.4138 3.57243L10.5674 1.97528ZM12.8251 3.1215L13.3378 2.55943C13.71 2.15139 13.6809 1.51889 13.2729 1.14671L12.9474 0.849846C12.5394 0.477663 11.9069 0.506732 11.5347 0.914775L10.9787 1.52434L12.8251 3.1215Z" fill="white"/>
<path d="M3.57895 11.6716C6.00828 11.9631 10.6337 12.138 9.70086 10.5055C8.76799 8.87297 12.4217 8.46484 14.3652 8.46484" stroke="white" stroke-linecap="round"/>
</svg>
