<svg width="20" height="20" viewBox="0 0 20 20" fill="none" xmlns="http://www.w3.org/2000/svg">
<path d="M17.5 4.98405C14.725 4.70905 11.9333 4.56738 9.15 4.56738C7.5 4.56738 5.85 4.65072 4.2 4.81738L2.5 4.98405" stroke="#FF6831" stroke-width="1.25" stroke-linecap="round" stroke-linejoin="round"/>
<path d="M7.08398 4.14199L7.26732 3.05033C7.40065 2.25866 7.50065 1.66699 8.90898 1.66699H11.0923C12.5007 1.66699 12.609 2.29199 12.734 3.05866L12.9173 4.14199" stroke="#FF6831" stroke-width="1.25" stroke-linecap="round" stroke-linejoin="round"/>
<path d="M15.7096 7.61719L15.168 16.0089C15.0763 17.3172 15.0013 18.3339 12.6763 18.3339H7.3263C5.0013 18.3339 4.9263 17.3172 4.83464 16.0089L4.29297 7.61719" stroke="#FF6831" stroke-width="1.25" stroke-linecap="round" stroke-linejoin="round"/>
<path d="M8.60938 13.75H11.3844" stroke="#FF6831" stroke-width="1.25" stroke-linecap="round" stroke-linejoin="round"/>
<path d="M7.91602 10.417H12.0827" stroke="#FF6831" stroke-width="1.25" stroke-linecap="round" stroke-linejoin="round"/>
</svg>
