<svg width="16" height="16" viewBox="0 0 16 16" fill="none" xmlns="http://www.w3.org/2000/svg">
<path d="M8.23776 1.3498L9.60123 5.5461C9.76857 6.06113 10.2485 6.40983 10.79 6.40983H15.2023C15.4445 6.40983 15.5452 6.71973 15.3492 6.86208L11.7797 9.45554C11.3415 9.77385 11.1582 10.3381 11.3256 10.8531L12.689 15.0494C12.7639 15.2797 12.5003 15.4713 12.3043 15.3289L8.73473 12.7354C8.29662 12.4171 7.70338 12.4171 7.26527 12.7354L3.69568 15.3289C3.49975 15.4712 3.23613 15.2797 3.31097 15.0494L4.67443 10.8531C4.84177 10.3381 4.65845 9.77385 4.22034 9.45554L0.650751 6.86208C0.454823 6.71973 0.555516 6.40983 0.797698 6.40983H5.20995C5.75149 6.40983 6.23143 6.06113 6.39877 5.5461L7.76224 1.3498C7.83707 1.11947 8.16293 1.11947 8.23776 1.3498Z" stroke="#FBA250"/>
</svg>
